<svg width="103" height="28" viewBox="0 0 103 28" fill="none" xmlns="http://www.w3.org/2000/svg">
<path d="M15.6596 27.1777C12.7496 27.1777 9.73305 27.1523 6.68105 27.1013L5.98903 27.0928C4.54287 27.0674 2.90154 27.0419 1.47313 26.9994C0.67464 26.974 0.018105 26.3711 0.000360849 25.607C-0.0173833 24.8174 0.621407 24.1721 1.44651 24.1467C1.44651 24.1467 1.44651 24.1467 1.45538 24.1467C1.75704 24.1382 1.95222 23.841 1.83688 23.5778C1.06501 21.8543 0.665768 19.9694 0.665768 18.0421C0.665768 15.045 1.62395 12.1752 3.43386 9.73847C4.99535 7.64135 7.08917 6.0027 9.51125 4.96688C9.54674 4.71216 9.59997 4.47443 9.67982 4.26217C9.95485 3.50653 10.3896 2.52164 11.2591 1.67261C12.3947 0.560365 13.9029 0 15.7483 0C17.6026 0 19.1286 0.577346 20.2731 1.70657C21.3378 2.75938 21.6926 3.95652 21.7991 4.415C21.8346 4.5933 21.8612 4.78858 21.879 5.01782C24.2744 6.07063 26.3327 7.70078 27.8676 9.78092C29.6598 12.2092 30.6091 15.0619 30.6091 18.0421C30.6091 19.9779 30.2098 21.8712 29.438 23.6203C29.3315 23.8665 29.509 24.1467 29.7929 24.1551C29.8017 24.1551 29.8017 24.1551 29.8106 24.1551C30.6091 24.1806 31.2656 24.7834 31.2834 25.5476C31.3011 26.3372 30.6623 26.9824 29.8372 27.0079C28.3378 27.0504 26.6965 27.0843 24.8334 27.1183C21.7902 27.1692 18.8358 27.1947 16.0411 27.1947L15.6596 27.1777Z" fill="white"/>
<path d="M10.8868 6.0791L8.42038 7.26776L6.73468 8.49037L4.8538 10.4771L3.72704 12.2176L2.96404 13.9582L2.36074 16.5223L2.28976 18.8402L2.60916 20.9288L3.26569 23.2467L4.86267 25.5815H26.5461L27.7882 23.1618L28.6931 20.8184L29.0125 17.3119L28.4447 14.3487L27.451 12.0394L26.0315 9.99317L24.3103 8.30358L22.8287 7.08097L20.3356 6.21495L10.8868 6.0791Z" fill="#008BCA"/>
<path d="M28.7375 19.6213C28.8173 19.1203 28.773 18.6873 28.5867 18.2968C28.3471 17.8043 27.9124 17.4477 27.3623 17.2779C26.3065 16.9638 23.0948 15.2827 21.1075 14.1874C20.9478 14.0516 20.7969 13.9242 20.655 13.8139L20.6816 13.5167C20.9389 12.9818 21.143 12.4129 21.2938 11.8186C21.3293 11.7846 21.3648 11.7507 21.4002 11.7167C21.7906 11.3262 22.0745 10.7488 22.1455 10.2139C22.7133 9.22904 22.7666 8.08284 22.6069 7.25927L20.9744 6.29137C20.9744 6.29137 20.6994 6.22345 20.2912 6.12156C20.2291 6.10458 20.3888 6.30835 20.1493 7.14041C20.1138 7.25927 20.1138 8.49038 20.0783 8.62623C20.0251 8.81302 20.0694 9.96771 20.0073 10.1715C19.9718 10.2988 19.9097 11.1309 19.8742 11.2667C19.8121 11.4875 19.4661 12.2601 19.404 12.4894C19.3419 12.7101 19.1911 13.3554 19.1379 13.5846C19.0935 13.7629 19.1201 14.5695 19.0669 14.7478C18.9959 15.028 19.8831 14.7308 19.8033 15.0025C19.75 15.2063 20.6905 15.8091 20.8768 15.9025C22.4915 16.743 23.2545 17.0572 23.1658 16.9298L24.5765 17.7024C25.6766 18.2628 26.4485 18.4496 27.1316 18.7298C27.2026 18.9845 27.2647 19.4345 27.2647 20.0798L27.6018 21.4297L27.939 22.5929L28.4536 21.608L28.7907 19.9439L28.7375 19.6213Z" fill="#047FA6"/>
<path d="M5.61675 25.6155H6.31764C6.69914 25.6155 7.95011 25.5645 8.50905 25.5645C9.28979 25.5645 11.0287 25.6155 11.428 25.6155H12.2708C12.6346 25.6155 14.0275 25.5815 14.5509 25.5815C14.9147 25.5815 15.793 25.6155 15.9882 25.6155H16.8311C17.0529 25.6155 18.3127 25.5985 18.641 25.5985C19.1467 25.5985 20.2912 25.6155 20.5485 25.6155H22.1188C22.2342 25.6155 22.6689 25.6155 22.7842 25.6155H23.5206C23.7247 25.6155 24.3901 25.6155 24.5853 25.6155H25.3217C25.3749 25.6155 25.5878 25.6155 25.6411 25.6155H26.3242L26.8565 24.9957L27.8946 23.0514L27.2292 20.0288L27.1493 18.7637L24.3546 17.5241L21.7196 16.1402L19.9984 15.2912L19.0846 14.7648L12.2619 14.9091L11.9425 14.994L11.0465 15.5119L9.76001 16.3779L7.63071 17.1506L5.01345 18.3307L4.58759 18.7722V19.3071L4.47225 19.7911L3.47857 22.9835L3.38098 23.1872L4.86262 25.5985C5.17314 25.607 5.52803 25.6155 5.61675 25.6155Z" fill="#293F6E"/>
<path d="M11.3037 7.53953L11.0553 6.36786L11.0997 4.63582L11.774 3.40471L12.954 2.22454L14.267 1.68116L16.0414 1.43494L17.461 1.70663L18.6055 2.25851L19.5725 3.2349L20.2646 4.28771L20.3533 5.60372L20.1581 7.15746L20.7614 6.90275L21.0098 7.20841L21.1163 8.11688L20.9921 8.94045L20.442 9.84892V10.5112L19.9718 10.8847L19.6613 11.8781L19.058 13.4234L18.3216 14.2045L17.9401 14.6545L17.0529 15.512L15.4736 15.5969L14.0097 15.1894L13.1137 14.213L12.12 12.9734L11.5522 11.0206L11.1707 10.7744L10.8868 10.3923V9.80647L10.3722 8.6263L10.2923 7.53104L10.5851 6.96219L10.9666 7.00464L11.3037 7.53953Z" fill="#FFCDAF"/>
<path d="M20.9301 7.08098L20.2913 6.89419L20.3534 5.03479L19.9541 3.7018L18.8274 2.40277L17.6297 1.78297L15.8996 1.44336L14.6309 1.51128L14.0808 1.74901C16.8134 2.0292 18.9161 4.27066 17.0175 7.7687C17.0175 7.7687 16.4497 8.08284 15.9794 8.05737C15.9794 8.05737 15.8641 8.43944 16.2101 8.63472C16.2101 8.63472 16.7957 11.9884 15.3052 12.0648L14.622 11.9629L14.4091 11.8016C14.4091 11.8016 14.6131 12.3365 14.9414 12.3365C14.9414 12.3365 15.1721 12.6676 15.6867 12.6846C15.8197 12.6846 15.4116 13.1007 15.5891 13.0497C15.5891 13.0497 16.4319 13.1601 15.7576 13.9667C15.4737 13.9582 15.1721 13.8988 14.8527 13.7799C14.8083 13.7629 14.7728 13.8139 14.8083 13.8478C14.9325 13.9837 15.7488 13.9412 15.2253 14.3572C15.0656 14.4506 15.1366 14.595 15.2874 14.5695C15.3584 14.561 15.4205 14.5525 15.4915 14.5525C15.6157 14.5355 15.7665 14.6119 15.8907 14.6204L16.3255 15.5374L17.3812 15.2912L17.6918 14.9346L18.7475 14.8412L19.0936 14.4167L18.9693 13.211L19.5194 12.2346L19.9453 10.8167L20.2026 10.7064L20.5575 9.80639L21.072 8.50736L20.9301 7.08098Z" fill="#EBBBA1"/>
<path d="M15.2696 9.37334C15.2696 9.37334 15.2075 9.13561 15.2252 8.90637C15.2252 8.90637 14.9857 9.05071 14.8615 9.31391C14.6574 9.15259 14.2759 8.95731 13.8234 8.97429C13.3 8.99128 12.9274 9.22052 12.7144 9.30542C12.6612 9.3224 12.6612 9.39881 12.7144 9.4158C13.0161 9.52617 13.6904 9.74692 14.3735 9.69598C14.3735 9.69598 14.551 9.70447 14.7728 9.69598C14.8703 9.78937 15.0212 10.0101 14.9413 10.4007C14.8349 10.9016 14.3291 11.012 14.2848 11.479L14.267 11.5044C14.2404 11.5384 14.2049 11.5724 14.1606 11.6063C14.0807 11.6657 13.992 11.7082 13.8944 11.7591C13.7081 11.8525 13.504 11.9544 13.3355 12.1072C13.1669 12.2601 13.0516 12.4554 13.0072 12.6591C12.9628 12.8629 12.9895 13.0667 13.0516 13.2535C13.0782 13.0582 13.1048 12.8714 13.1758 12.6931C13.2379 12.5233 13.3443 12.3705 13.4863 12.2431C13.6283 12.1157 13.8057 12.0054 13.9831 11.8865C14.0719 11.8271 14.1606 11.7591 14.2316 11.6742C14.2493 11.6573 14.2582 11.6403 14.267 11.6233C14.267 11.6488 14.2759 11.6827 14.2759 11.7167C14.3558 12.1412 14.4977 11.7167 14.4977 11.7167C14.4977 11.7167 14.4179 10.9186 15.2518 10.8931L15.2075 10.0526L15.2696 9.37334Z" fill="#EBBBA1"/>
<path d="M12.3152 8.73705C12.2709 8.75404 12.2265 8.70306 12.262 8.66907C12.4306 8.45666 12.8387 8.07431 13.5307 8.11679C14.1961 8.15927 14.2405 8.37169 14.7817 8.47365C14.9325 8.49914 14.9769 8.68607 14.8615 8.77103C14.7906 8.82201 14.6575 8.89848 14.5244 8.89848C14.0719 8.89848 13.8146 8.5926 13.3799 8.55862C13.0871 8.53313 12.7145 8.56711 12.3152 8.73705Z" fill="#EBBBA1"/>
<path d="M12.2708 13.4062V14.5949L13.8678 15.2911L13.0871 14.0515L12.2708 13.4062Z" fill="#EBBBA1"/>
<path d="M11.3925 7.78562L10.9666 6.94507L10.4609 7.03846L10.2923 7.65826L10.2568 8.60918L10.9577 9.84878L10.8868 10.5195L11.5167 10.8676L11.3747 9.9167L11.4191 8.51579L11.3925 7.78562Z" fill="#EBBBA1"/>
<path d="M12.2708 14.7648L12.6701 18.577L14.409 18.4496L14.1606 17.6175L14.3558 17.2355L15.5624 15.911L13.7791 15.2148L12.2708 14.7648Z" fill="white"/>
<path d="M14.1073 1.84241C14.1073 1.84241 11.0287 3.43011 11.3038 6.73287L11.0465 6.35929L10.9666 5.3829L11.3747 4.0584L12.4305 2.6405L13.4331 1.84241H14.1073V1.84241Z" fill="white"/>
<path d="M12.0757 15.2062C12.0757 15.2062 10.39 16.1572 9.62701 17.8977L9.39633 17.643L9.84881 16.7005L10.5852 15.843L11.8273 15.1383L12.0757 15.2062Z" fill="white"/>
<path d="M9.80441 16.5223C9.80441 16.5223 5.13769 18.4156 4.96912 18.8826C4.80055 19.3496 4.96912 19.6637 4.96912 19.6637L4.52551 19.1288L4.66747 18.6703L5.38611 18.1439L6.93872 17.3968L9.38742 16.361L9.6802 16.3779L9.80441 16.5223Z" fill="white"/>
<path d="M12.5814 9.14428L13.3532 8.90637L14.1872 9.03382L14.2937 9.33121L13.8235 9.3737H13.2113L12.5814 9.14428Z" fill="white"/>
<path d="M18.7741 9.13579L18.0111 8.90637L17.1682 9.03382L17.0706 9.33121L17.532 9.3737H18.153L18.7741 9.13579Z" fill="white"/>
<path d="M15.4027 16.2676C15.0478 16.5393 14.7284 16.8449 14.4711 17.193C14.3292 17.3713 14.3026 17.6091 14.3824 17.8213L14.6574 18.5175L16.6803 18.4921L17.0085 17.8468C17.1239 17.6175 17.0973 17.3459 16.9376 17.1506C16.6537 16.8025 16.2899 16.5223 15.8907 16.2506C15.7398 16.1572 15.5358 16.1657 15.4027 16.2676Z" fill="#BF3F4A"/>
<path d="M15.6422 16.31C15.6422 16.31 16.4939 17.21 16.4407 17.6939C16.3786 18.1779 15.7753 18.509 15.7753 18.509H16.8311L17.319 17.6005L16.7246 16.8958C16.7246 16.8958 16.1568 16.3949 16.1302 16.3694C16.0947 16.3439 15.6511 16.1826 15.6511 16.1826V16.31H15.6422Z" fill="#A43447"/>
<path d="M8.37597 25.5051C9.15671 25.5051 10.8956 25.556 11.2949 25.556H12.1377C12.5015 25.556 13.8944 25.5221 14.4179 25.5221C14.7816 25.5221 15.66 25.556 15.8551 25.556H16.698C16.9198 25.556 18.1796 25.5391 18.5079 25.5391C19.0136 25.5391 20.1581 25.556 20.4154 25.556H21.9858C22.1011 25.556 22.5358 25.556 22.6512 25.556H23.3875C23.4674 25.556 23.636 25.556 23.8134 25.556L24.6119 20.4109L24.7361 19.7062L23.9997 19.1967L18.9515 18.5854L14.7195 18.4496L11.7651 18.5854L8.74859 18.8826L7.11613 19.443L6.9032 20.0543L7.67507 25.5136C7.9501 25.5136 8.19852 25.5051 8.37597 25.5051Z" fill="#E0DFDC"/>
<path d="M16.8932 18.4156L18.7652 18.577L18.9072 16.9977L19.0935 14.7648L17.6651 14.9855L15.935 15.9789L17.4078 17.643L16.8932 18.4156Z" fill="white"/>
<path d="M18.295 18.6619C18.295 18.6619 22.3318 19.3666 22.5536 21.2684C22.7399 22.9071 22.039 24.6901 18.2329 25.5985C17.3723 25.8023 23.7513 25.5476 23.7513 25.5476L24.5676 20.3939L24.5055 19.5618L23.4674 19.0185L20.1315 18.7213L18.295 18.6619Z" fill="#C3C3C3"/>
<path d="M18.4459 18.5769C18.4459 18.5769 7.48883 19.0779 6.90327 20.0627L6.85004 19.6722L7.16943 19.375L8.11875 19.1373L10.2037 18.8826L13.5396 18.56L16.6892 18.526L18.4459 18.5769Z" fill="white"/>
<path d="M15.8375 23.6882C16.4744 23.6882 16.9908 23.2663 16.9908 22.7458C16.9908 22.2253 16.4744 21.8033 15.8375 21.8033C15.2005 21.8033 14.6841 22.2253 14.6841 22.7458C14.6841 23.2663 15.2005 23.6882 15.8375 23.6882Z" fill="#C3C3C3"/>
<path d="M41.0053 17.8844C40.5883 18.0457 39.71 18.2156 39.0002 18.2156C37.8912 18.2156 37.0484 17.9184 36.4096 17.2986C35.5756 16.5175 35.132 15.1505 35.1586 13.5458C35.203 10.1667 37.2169 8.76575 39.2752 8.76575C40.0116 8.76575 40.5528 8.90159 40.8633 9.04593L40.5351 10.5997C40.26 10.4638 39.8874 10.3874 39.4261 10.3874C38.1485 10.3874 37.1282 11.2365 37.1282 13.6477C37.1282 15.8807 38.0332 16.6873 38.9115 16.6873C39.0801 16.6873 39.2131 16.6703 39.2841 16.6363V14.4034H38.4147V12.926H41.0142V17.8844H41.0053Z" fill="white"/>
<path d="M42.4249 8.84326H44.3147V16.595H46.7988V18.1233H42.4249V8.84326Z" fill="white"/>
<path d="M53.2222 13.326C53.2222 16.8241 51.9268 18.242 50.0814 18.242C47.89 18.242 47.0206 16.0175 47.0206 13.4704C47.0206 10.9318 48.0763 8.74123 50.2234 8.74123C52.5568 8.73274 53.2222 11.195 53.2222 13.326ZM48.9813 13.4874C48.9813 15.593 49.3894 16.6712 50.1524 16.6712C50.9509 16.6712 51.2526 15.2873 51.2526 13.4109C51.2526 11.7723 50.9953 10.3035 50.1435 10.3035C49.3894 10.3035 48.9813 11.4921 48.9813 13.4874Z" fill="white"/>
<path d="M58.2349 16.0091L57.809 18.1317H55.9814L58.0841 8.84326H60.3464L62.2362 18.1233H60.3997L59.9827 16.0007H58.2349V16.0091ZM59.8141 14.6082L59.4947 12.6639C59.3971 12.1036 59.2729 11.1696 59.1753 10.5583H59.1398C59.0334 11.1781 58.8914 12.1375 58.7938 12.6724L58.4389 14.6082H59.8141Z" fill="white"/>
<path d="M67.7014 17.9861C67.4263 18.105 66.9029 18.2069 66.2463 18.2069C63.771 18.2069 62.5822 16.2541 62.5822 13.6221C62.5822 10.124 64.6139 8.75708 66.4948 8.75708C67.1602 8.75708 67.6215 8.88444 67.8167 9.0033L67.5062 10.5231C67.2844 10.4212 67.0448 10.3363 66.6278 10.3363C65.5543 10.3363 64.5873 11.2278 64.5873 13.5202C64.5873 15.7362 65.4656 16.6022 66.6101 16.6022C66.9295 16.6022 67.2932 16.5343 67.515 16.4664L67.7014 17.9861Z" fill="white"/>
<path d="M70.5051 16.0091L70.0793 18.1317H68.2516L70.3543 8.84326H72.6167L74.5064 18.1233H72.6699L72.2529 16.0007H70.5051V16.0091ZM72.0844 14.6082L71.765 12.6639C71.6674 12.1036 71.5432 11.1696 71.4456 10.5583H71.4101C71.3036 11.1781 71.1617 12.1375 71.0641 12.6724L70.7092 14.6082H72.0844Z" fill="white"/>
<path d="M75.5621 8.97859C76.0323 8.87671 76.7243 8.80029 77.4785 8.80029C78.7028 8.80029 79.5545 9.07199 80.1756 9.62386C81.0096 10.3371 81.4354 11.5682 81.4354 13.3681C81.4354 15.253 80.9297 16.5775 80.0869 17.2992C79.4215 17.902 78.4722 18.1992 77.1236 18.1992C76.5292 18.1992 75.9347 18.1397 75.5621 18.0973V8.97859ZM77.443 16.6964C77.5406 16.7218 77.6825 16.7218 77.7801 16.7218C78.6939 16.7218 79.4836 15.8728 79.4836 13.3087C79.4836 11.3984 78.969 10.2437 77.8245 10.2437C77.6914 10.2437 77.5672 10.2521 77.443 10.2861V16.6964Z" fill="white"/>
<path d="M86.7232 14.0479H84.5141V16.561H87.0071V18.1233H82.6243V8.84326H86.8385V10.4055H84.5141V12.5366H86.7232V14.0479Z" fill="white"/>
<path d="M94.229 14.8793C94.1758 13.9878 94.1226 12.7991 94.1403 11.7973H94.1048C93.9274 12.7906 93.6701 13.9368 93.4926 14.6585L92.6498 17.9698H91.3101L90.5027 14.7095C90.3164 13.9623 90.0591 12.8076 89.9083 11.7973H89.8728C89.8462 12.8076 89.7752 13.9793 89.7309 14.8963L89.5623 18.1141H87.9476L88.6485 8.83411H90.6358L91.4077 12.1963C91.6739 13.3765 91.9223 14.3953 92.0909 15.4481H92.1263C92.2772 14.4208 92.4901 13.368 92.7474 12.1963L93.5104 8.83411H95.4978L96.0833 18.1141H94.3976L94.229 14.8793Z" fill="white"/>
<path d="M98.4964 18.1226V14.5736L96.3671 8.8426H98.3811L99.0376 11.0501C99.2239 11.6529 99.4014 12.3406 99.5433 13.0199H99.57C99.6942 12.3491 99.845 11.6784 100.022 11.0076L100.59 8.83411H102.542L100.377 14.4972V18.1226H98.4964Z" fill="white"/>
</svg>
